<mxfile host="Electron" modified="2023-05-10T02:57:26.554Z" agent="Mozilla/5.0 (Windows NT 10.0; Win64; x64) AppleWebKit/537.36 (KHTML, like Gecko) draw.io/21.2.8 Chrome/112.0.5615.165 Electron/24.2.0 Safari/537.36" etag="Q9lAXVGZnG0NRHwDvdH2" version="21.2.8" type="device">
  <diagram name="第 1 页" id="APWpNPpfQcrCgk31X8Tj">
    <mxGraphModel dx="1302" dy="764" grid="1" gridSize="10" guides="1" tooltips="1" connect="1" arrows="1" fold="1" page="1" pageScale="1" pageWidth="3300" pageHeight="2339" math="0" shadow="0">
      <root>
        <mxCell id="0" />
        <mxCell id="1" parent="0" />
        <mxCell id="5noMDowV80ESmVYEFfka-27" style="edgeStyle=orthogonalEdgeStyle;rounded=0;orthogonalLoop=1;jettySize=auto;html=1;exitX=0.5;exitY=1;exitDx=0;exitDy=0;entryX=0.5;entryY=0;entryDx=0;entryDy=0;" parent="1" source="5noMDowV80ESmVYEFfka-1" target="5noMDowV80ESmVYEFfka-14" edge="1">
          <mxGeometry relative="1" as="geometry" />
        </mxCell>
        <mxCell id="5noMDowV80ESmVYEFfka-28" value="Trigger&lt;br&gt;Passing Value" style="edgeLabel;html=1;align=center;verticalAlign=middle;resizable=0;points=[];" parent="5noMDowV80ESmVYEFfka-27" vertex="1" connectable="0">
          <mxGeometry x="-0.2503" y="-1" relative="1" as="geometry">
            <mxPoint as="offset" />
          </mxGeometry>
        </mxCell>
        <mxCell id="5noMDowV80ESmVYEFfka-1" value="Character" style="rounded=1;whiteSpace=wrap;html=1;" parent="1" vertex="1">
          <mxGeometry x="1030" y="480" width="120" height="60" as="geometry" />
        </mxCell>
        <mxCell id="5noMDowV80ESmVYEFfka-7" style="edgeStyle=orthogonalEdgeStyle;rounded=0;orthogonalLoop=1;jettySize=auto;html=1;exitX=0;exitY=0.75;exitDx=0;exitDy=0;entryX=1;entryY=0.75;entryDx=0;entryDy=0;" parent="1" source="5noMDowV80ESmVYEFfka-2" target="5noMDowV80ESmVYEFfka-4" edge="1">
          <mxGeometry relative="1" as="geometry" />
        </mxCell>
        <mxCell id="5noMDowV80ESmVYEFfka-25" value="Binding Event" style="edgeLabel;html=1;align=center;verticalAlign=middle;resizable=0;points=[];" parent="5noMDowV80ESmVYEFfka-7" vertex="1" connectable="0">
          <mxGeometry x="0.2545" y="-1" relative="1" as="geometry">
            <mxPoint x="9" as="offset" />
          </mxGeometry>
        </mxCell>
        <mxCell id="5noMDowV80ESmVYEFfka-32" style="edgeStyle=orthogonalEdgeStyle;rounded=0;orthogonalLoop=1;jettySize=auto;html=1;exitX=0.5;exitY=1;exitDx=0;exitDy=0;entryX=0.5;entryY=0;entryDx=0;entryDy=0;" parent="1" source="5noMDowV80ESmVYEFfka-2" target="5noMDowV80ESmVYEFfka-1" edge="1">
          <mxGeometry relative="1" as="geometry" />
        </mxCell>
        <mxCell id="5noMDowV80ESmVYEFfka-2" value="PlayerCharacter" style="rounded=1;whiteSpace=wrap;html=1;" parent="1" vertex="1">
          <mxGeometry x="920" y="240" width="120" height="60" as="geometry" />
        </mxCell>
        <mxCell id="5noMDowV80ESmVYEFfka-6" style="edgeStyle=orthogonalEdgeStyle;rounded=0;orthogonalLoop=1;jettySize=auto;html=1;exitX=1;exitY=0.25;exitDx=0;exitDy=0;entryX=0;entryY=0.25;entryDx=0;entryDy=0;" parent="1" source="5noMDowV80ESmVYEFfka-4" target="5noMDowV80ESmVYEFfka-2" edge="1">
          <mxGeometry relative="1" as="geometry" />
        </mxCell>
        <mxCell id="5noMDowV80ESmVYEFfka-24" value="Passing Value" style="edgeLabel;html=1;align=center;verticalAlign=middle;resizable=0;points=[];" parent="5noMDowV80ESmVYEFfka-6" vertex="1" connectable="0">
          <mxGeometry x="-0.1788" relative="1" as="geometry">
            <mxPoint as="offset" />
          </mxGeometry>
        </mxCell>
        <mxCell id="5noMDowV80ESmVYEFfka-13" style="edgeStyle=orthogonalEdgeStyle;rounded=0;orthogonalLoop=1;jettySize=auto;html=1;exitX=0;exitY=0.75;exitDx=0;exitDy=0;entryX=1;entryY=0.5;entryDx=0;entryDy=0;" parent="1" source="5noMDowV80ESmVYEFfka-4" target="5noMDowV80ESmVYEFfka-11" edge="1">
          <mxGeometry relative="1" as="geometry">
            <Array as="points">
              <mxPoint x="690" y="270" />
            </Array>
          </mxGeometry>
        </mxCell>
        <mxCell id="5noMDowV80ESmVYEFfka-26" value="Binding Event" style="edgeLabel;html=1;align=center;verticalAlign=middle;resizable=0;points=[];" parent="5noMDowV80ESmVYEFfka-13" vertex="1" connectable="0">
          <mxGeometry x="-0.0386" y="-2" relative="1" as="geometry">
            <mxPoint as="offset" />
          </mxGeometry>
        </mxCell>
        <mxCell id="5noMDowV80ESmVYEFfka-4" value="InputHandler" style="rounded=1;whiteSpace=wrap;html=1;" parent="1" vertex="1">
          <mxGeometry x="690" y="240" width="120" height="60" as="geometry" />
        </mxCell>
        <mxCell id="5noMDowV80ESmVYEFfka-33" style="edgeStyle=orthogonalEdgeStyle;rounded=0;orthogonalLoop=1;jettySize=auto;html=1;exitX=0.5;exitY=1;exitDx=0;exitDy=0;" parent="1" source="5noMDowV80ESmVYEFfka-8" edge="1">
          <mxGeometry relative="1" as="geometry">
            <mxPoint x="1090" y="480" as="targetPoint" />
          </mxGeometry>
        </mxCell>
        <mxCell id="5noMDowV80ESmVYEFfka-34" value="Inherit From" style="edgeLabel;html=1;align=center;verticalAlign=middle;resizable=0;points=[];" parent="5noMDowV80ESmVYEFfka-33" vertex="1" connectable="0">
          <mxGeometry x="0.6176" y="-2" relative="1" as="geometry">
            <mxPoint as="offset" />
          </mxGeometry>
        </mxCell>
        <mxCell id="5noMDowV80ESmVYEFfka-8" value="AICharacter" style="rounded=1;whiteSpace=wrap;html=1;" parent="1" vertex="1">
          <mxGeometry x="1150" y="240" width="120" height="60" as="geometry" />
        </mxCell>
        <mxCell id="5noMDowV80ESmVYEFfka-11" value="InputSystem" style="rounded=1;whiteSpace=wrap;html=1;" parent="1" vertex="1">
          <mxGeometry x="450" y="240" width="120" height="60" as="geometry" />
        </mxCell>
        <mxCell id="5noMDowV80ESmVYEFfka-14" value="AnimHandler" style="rounded=1;whiteSpace=wrap;html=1;" parent="1" vertex="1">
          <mxGeometry x="1030" y="630" width="120" height="60" as="geometry" />
        </mxCell>
        <mxCell id="5noMDowV80ESmVYEFfka-17" style="edgeStyle=orthogonalEdgeStyle;rounded=0;orthogonalLoop=1;jettySize=auto;html=1;exitX=0;exitY=0.5;exitDx=0;exitDy=0;entryX=1;entryY=0.5;entryDx=0;entryDy=0;" parent="1" source="5noMDowV80ESmVYEFfka-16" target="5noMDowV80ESmVYEFfka-8" edge="1">
          <mxGeometry relative="1" as="geometry" />
        </mxCell>
        <mxCell id="5noMDowV80ESmVYEFfka-16" value="Behavior Tree" style="rounded=1;whiteSpace=wrap;html=1;" parent="1" vertex="1">
          <mxGeometry x="1400" y="240" width="120" height="60" as="geometry" />
        </mxCell>
        <mxCell id="5noMDowV80ESmVYEFfka-36" style="edgeStyle=orthogonalEdgeStyle;rounded=0;orthogonalLoop=1;jettySize=auto;html=1;exitX=0.5;exitY=1;exitDx=0;exitDy=0;entryX=0.5;entryY=0;entryDx=0;entryDy=0;" parent="1" source="5noMDowV80ESmVYEFfka-35" target="5noMDowV80ESmVYEFfka-8" edge="1">
          <mxGeometry relative="1" as="geometry" />
        </mxCell>
        <mxCell id="5noMDowV80ESmVYEFfka-35" value="NPC" style="rounded=1;whiteSpace=wrap;html=1;" parent="1" vertex="1">
          <mxGeometry x="1060" y="80" width="120" height="60" as="geometry" />
        </mxCell>
        <mxCell id="5noMDowV80ESmVYEFfka-38" style="edgeStyle=orthogonalEdgeStyle;rounded=0;orthogonalLoop=1;jettySize=auto;html=1;exitX=0.5;exitY=1;exitDx=0;exitDy=0;" parent="1" source="5noMDowV80ESmVYEFfka-37" target="5noMDowV80ESmVYEFfka-8" edge="1">
          <mxGeometry relative="1" as="geometry" />
        </mxCell>
        <mxCell id="5noMDowV80ESmVYEFfka-37" value="Enemy" style="rounded=1;whiteSpace=wrap;html=1;" parent="1" vertex="1">
          <mxGeometry x="1250" y="80" width="120" height="60" as="geometry" />
        </mxCell>
        <mxCell id="5noMDowV80ESmVYEFfka-41" style="edgeStyle=orthogonalEdgeStyle;rounded=0;orthogonalLoop=1;jettySize=auto;html=1;exitX=0.5;exitY=1;exitDx=0;exitDy=0;entryX=0.5;entryY=0;entryDx=0;entryDy=0;" parent="1" source="5noMDowV80ESmVYEFfka-39" target="5noMDowV80ESmVYEFfka-2" edge="1">
          <mxGeometry relative="1" as="geometry" />
        </mxCell>
        <mxCell id="5noMDowV80ESmVYEFfka-39" value="CharacterA" style="rounded=1;whiteSpace=wrap;html=1;" parent="1" vertex="1">
          <mxGeometry x="740" y="80" width="120" height="60" as="geometry" />
        </mxCell>
        <mxCell id="5noMDowV80ESmVYEFfka-42" style="edgeStyle=orthogonalEdgeStyle;rounded=0;orthogonalLoop=1;jettySize=auto;html=1;exitX=0.5;exitY=1;exitDx=0;exitDy=0;" parent="1" source="5noMDowV80ESmVYEFfka-40" edge="1">
          <mxGeometry relative="1" as="geometry">
            <mxPoint x="980" y="240" as="targetPoint" />
          </mxGeometry>
        </mxCell>
        <mxCell id="5noMDowV80ESmVYEFfka-40" value="CharacterB" style="rounded=1;whiteSpace=wrap;html=1;" parent="1" vertex="1">
          <mxGeometry x="900" y="80" width="120" height="60" as="geometry" />
        </mxCell>
        <mxCell id="5noMDowV80ESmVYEFfka-85" value="" style="group" parent="1" vertex="1" connectable="0">
          <mxGeometry x="1160" y="980" width="1065" height="530" as="geometry" />
        </mxCell>
        <mxCell id="5noMDowV80ESmVYEFfka-46" value="Character" style="rounded=1;whiteSpace=wrap;html=1;" parent="5noMDowV80ESmVYEFfka-85" vertex="1">
          <mxGeometry x="575" y="280" width="120" height="60" as="geometry" />
        </mxCell>
        <mxCell id="5noMDowV80ESmVYEFfka-50" value="PlayerController" style="rounded=1;whiteSpace=wrap;html=1;" parent="5noMDowV80ESmVYEFfka-85" vertex="1">
          <mxGeometry x="465" width="120" height="60" as="geometry" />
        </mxCell>
        <mxCell id="5noMDowV80ESmVYEFfka-51" style="edgeStyle=orthogonalEdgeStyle;rounded=0;orthogonalLoop=1;jettySize=auto;html=1;exitX=1;exitY=0.25;exitDx=0;exitDy=0;entryX=0;entryY=0.25;entryDx=0;entryDy=0;" parent="5noMDowV80ESmVYEFfka-85" source="5noMDowV80ESmVYEFfka-55" target="5noMDowV80ESmVYEFfka-50" edge="1">
          <mxGeometry relative="1" as="geometry" />
        </mxCell>
        <mxCell id="5noMDowV80ESmVYEFfka-52" value="Passing Value" style="edgeLabel;html=1;align=center;verticalAlign=middle;resizable=0;points=[];" parent="5noMDowV80ESmVYEFfka-51" vertex="1" connectable="0">
          <mxGeometry x="-0.1788" relative="1" as="geometry">
            <mxPoint as="offset" />
          </mxGeometry>
        </mxCell>
        <mxCell id="5noMDowV80ESmVYEFfka-103" style="edgeStyle=orthogonalEdgeStyle;rounded=0;orthogonalLoop=1;jettySize=auto;html=1;exitX=0.5;exitY=1;exitDx=0;exitDy=0;entryX=0;entryY=0.5;entryDx=0;entryDy=0;" parent="5noMDowV80ESmVYEFfka-85" source="5noMDowV80ESmVYEFfka-55" target="5noMDowV80ESmVYEFfka-46" edge="1">
          <mxGeometry relative="1" as="geometry" />
        </mxCell>
        <mxCell id="5noMDowV80ESmVYEFfka-55" value="InputHandler" style="rounded=1;whiteSpace=wrap;html=1;" parent="5noMDowV80ESmVYEFfka-85" vertex="1">
          <mxGeometry x="235" width="120" height="60" as="geometry" />
        </mxCell>
        <mxCell id="5noMDowV80ESmVYEFfka-47" style="edgeStyle=orthogonalEdgeStyle;rounded=0;orthogonalLoop=1;jettySize=auto;html=1;exitX=0;exitY=0.75;exitDx=0;exitDy=0;entryX=1;entryY=0.75;entryDx=0;entryDy=0;" parent="5noMDowV80ESmVYEFfka-85" source="5noMDowV80ESmVYEFfka-50" target="5noMDowV80ESmVYEFfka-55" edge="1">
          <mxGeometry relative="1" as="geometry" />
        </mxCell>
        <mxCell id="5noMDowV80ESmVYEFfka-48" value="Binding Event" style="edgeLabel;html=1;align=center;verticalAlign=middle;resizable=0;points=[];" parent="5noMDowV80ESmVYEFfka-47" vertex="1" connectable="0">
          <mxGeometry x="0.2545" y="-1" relative="1" as="geometry">
            <mxPoint x="9" as="offset" />
          </mxGeometry>
        </mxCell>
        <mxCell id="5noMDowV80ESmVYEFfka-58" value="AIController" style="rounded=1;whiteSpace=wrap;html=1;" parent="5noMDowV80ESmVYEFfka-85" vertex="1">
          <mxGeometry x="695" width="120" height="60" as="geometry" />
        </mxCell>
        <mxCell id="5noMDowV80ESmVYEFfka-59" value="AnimHandler" style="rounded=1;whiteSpace=wrap;html=1;" parent="5noMDowV80ESmVYEFfka-85" vertex="1">
          <mxGeometry x="575" y="430" width="120" height="60" as="geometry" />
        </mxCell>
        <mxCell id="5noMDowV80ESmVYEFfka-44" style="edgeStyle=orthogonalEdgeStyle;rounded=0;orthogonalLoop=1;jettySize=auto;html=1;exitX=0.5;exitY=1;exitDx=0;exitDy=0;entryX=0.5;entryY=0;entryDx=0;entryDy=0;" parent="5noMDowV80ESmVYEFfka-85" source="5noMDowV80ESmVYEFfka-46" target="5noMDowV80ESmVYEFfka-59" edge="1">
          <mxGeometry relative="1" as="geometry" />
        </mxCell>
        <mxCell id="5noMDowV80ESmVYEFfka-45" value="Trigger&lt;br&gt;Passing Value" style="edgeLabel;html=1;align=center;verticalAlign=middle;resizable=0;points=[];" parent="5noMDowV80ESmVYEFfka-44" vertex="1" connectable="0">
          <mxGeometry x="-0.2503" y="-1" relative="1" as="geometry">
            <mxPoint as="offset" />
          </mxGeometry>
        </mxCell>
        <mxCell id="5noMDowV80ESmVYEFfka-60" style="edgeStyle=orthogonalEdgeStyle;rounded=0;orthogonalLoop=1;jettySize=auto;html=1;exitX=0;exitY=0.5;exitDx=0;exitDy=0;entryX=1;entryY=0.5;entryDx=0;entryDy=0;" parent="5noMDowV80ESmVYEFfka-85" source="5noMDowV80ESmVYEFfka-61" target="5noMDowV80ESmVYEFfka-58" edge="1">
          <mxGeometry relative="1" as="geometry" />
        </mxCell>
        <mxCell id="5noMDowV80ESmVYEFfka-61" value="Behavior Tree" style="rounded=1;whiteSpace=wrap;html=1;" parent="5noMDowV80ESmVYEFfka-85" vertex="1">
          <mxGeometry x="945" width="120" height="60" as="geometry" />
        </mxCell>
        <mxCell id="5noMDowV80ESmVYEFfka-73" style="edgeStyle=orthogonalEdgeStyle;rounded=0;orthogonalLoop=1;jettySize=auto;html=1;exitX=0.5;exitY=1;exitDx=0;exitDy=0;entryX=0.5;entryY=0;entryDx=0;entryDy=0;" parent="5noMDowV80ESmVYEFfka-85" source="5noMDowV80ESmVYEFfka-70" target="5noMDowV80ESmVYEFfka-46" edge="1">
          <mxGeometry relative="1" as="geometry" />
        </mxCell>
        <mxCell id="5noMDowV80ESmVYEFfka-70" value="CharacterHandler&lt;br&gt;（Controller）" style="rounded=1;whiteSpace=wrap;html=1;" parent="5noMDowV80ESmVYEFfka-85" vertex="1">
          <mxGeometry x="575" y="160" width="120" height="60" as="geometry" />
        </mxCell>
        <mxCell id="5noMDowV80ESmVYEFfka-71" style="edgeStyle=orthogonalEdgeStyle;rounded=0;orthogonalLoop=1;jettySize=auto;html=1;exitX=0.5;exitY=1;exitDx=0;exitDy=0;entryX=0.5;entryY=0;entryDx=0;entryDy=0;" parent="5noMDowV80ESmVYEFfka-85" source="5noMDowV80ESmVYEFfka-50" target="5noMDowV80ESmVYEFfka-70" edge="1">
          <mxGeometry relative="1" as="geometry" />
        </mxCell>
        <mxCell id="5noMDowV80ESmVYEFfka-72" style="edgeStyle=orthogonalEdgeStyle;rounded=0;orthogonalLoop=1;jettySize=auto;html=1;exitX=0.5;exitY=1;exitDx=0;exitDy=0;entryX=0.5;entryY=0;entryDx=0;entryDy=0;" parent="5noMDowV80ESmVYEFfka-85" source="5noMDowV80ESmVYEFfka-58" target="5noMDowV80ESmVYEFfka-70" edge="1">
          <mxGeometry relative="1" as="geometry" />
        </mxCell>
        <mxCell id="5noMDowV80ESmVYEFfka-74" value="InputSystem" style="rounded=1;whiteSpace=wrap;html=1;" parent="5noMDowV80ESmVYEFfka-85" vertex="1">
          <mxGeometry width="120" height="60" as="geometry" />
        </mxCell>
        <mxCell id="5noMDowV80ESmVYEFfka-53" style="edgeStyle=orthogonalEdgeStyle;rounded=0;orthogonalLoop=1;jettySize=auto;html=1;exitX=0;exitY=0.75;exitDx=0;exitDy=0;entryX=1;entryY=0.5;entryDx=0;entryDy=0;" parent="5noMDowV80ESmVYEFfka-85" source="5noMDowV80ESmVYEFfka-55" target="5noMDowV80ESmVYEFfka-74" edge="1">
          <mxGeometry relative="1" as="geometry">
            <mxPoint x="115" y="30" as="targetPoint" />
            <Array as="points">
              <mxPoint x="235" y="30" />
            </Array>
          </mxGeometry>
        </mxCell>
        <mxCell id="5noMDowV80ESmVYEFfka-54" value="Binding Event" style="edgeLabel;html=1;align=center;verticalAlign=middle;resizable=0;points=[];" parent="5noMDowV80ESmVYEFfka-53" vertex="1" connectable="0">
          <mxGeometry x="-0.0386" y="-2" relative="1" as="geometry">
            <mxPoint as="offset" />
          </mxGeometry>
        </mxCell>
        <mxCell id="5noMDowV80ESmVYEFfka-75" value="CharacterA" style="rounded=1;whiteSpace=wrap;html=1;" parent="5noMDowV80ESmVYEFfka-85" vertex="1">
          <mxGeometry x="840" y="180" width="120" height="60" as="geometry" />
        </mxCell>
        <mxCell id="5noMDowV80ESmVYEFfka-76" style="edgeStyle=orthogonalEdgeStyle;rounded=0;orthogonalLoop=1;jettySize=auto;html=1;exitX=1;exitY=0.5;exitDx=0;exitDy=0;entryX=0;entryY=0.5;entryDx=0;entryDy=0;" parent="5noMDowV80ESmVYEFfka-85" source="5noMDowV80ESmVYEFfka-46" target="5noMDowV80ESmVYEFfka-75" edge="1">
          <mxGeometry relative="1" as="geometry" />
        </mxCell>
        <mxCell id="5noMDowV80ESmVYEFfka-77" value="CharacterB" style="rounded=1;whiteSpace=wrap;html=1;" parent="5noMDowV80ESmVYEFfka-85" vertex="1">
          <mxGeometry x="840" y="280" width="120" height="60" as="geometry" />
        </mxCell>
        <mxCell id="5noMDowV80ESmVYEFfka-78" style="edgeStyle=orthogonalEdgeStyle;rounded=0;orthogonalLoop=1;jettySize=auto;html=1;exitX=1;exitY=0.5;exitDx=0;exitDy=0;" parent="5noMDowV80ESmVYEFfka-85" source="5noMDowV80ESmVYEFfka-46" target="5noMDowV80ESmVYEFfka-77" edge="1">
          <mxGeometry relative="1" as="geometry" />
        </mxCell>
        <mxCell id="5noMDowV80ESmVYEFfka-79" value="Enemy" style="rounded=1;whiteSpace=wrap;html=1;" parent="5noMDowV80ESmVYEFfka-85" vertex="1">
          <mxGeometry x="840" y="380" width="120" height="60" as="geometry" />
        </mxCell>
        <mxCell id="5noMDowV80ESmVYEFfka-80" style="edgeStyle=orthogonalEdgeStyle;rounded=0;orthogonalLoop=1;jettySize=auto;html=1;exitX=1;exitY=0.5;exitDx=0;exitDy=0;entryX=0;entryY=0.5;entryDx=0;entryDy=0;" parent="5noMDowV80ESmVYEFfka-85" source="5noMDowV80ESmVYEFfka-46" target="5noMDowV80ESmVYEFfka-79" edge="1">
          <mxGeometry relative="1" as="geometry" />
        </mxCell>
        <mxCell id="5noMDowV80ESmVYEFfka-83" value="NPC" style="rounded=1;whiteSpace=wrap;html=1;" parent="5noMDowV80ESmVYEFfka-85" vertex="1">
          <mxGeometry x="840" y="470" width="120" height="60" as="geometry" />
        </mxCell>
        <mxCell id="5noMDowV80ESmVYEFfka-84" style="edgeStyle=orthogonalEdgeStyle;rounded=0;orthogonalLoop=1;jettySize=auto;html=1;exitX=1;exitY=0.5;exitDx=0;exitDy=0;entryX=0;entryY=0.5;entryDx=0;entryDy=0;" parent="5noMDowV80ESmVYEFfka-85" source="5noMDowV80ESmVYEFfka-46" target="5noMDowV80ESmVYEFfka-83" edge="1">
          <mxGeometry relative="1" as="geometry" />
        </mxCell>
        <mxCell id="5noMDowV80ESmVYEFfka-100" style="edgeStyle=orthogonalEdgeStyle;rounded=0;orthogonalLoop=1;jettySize=auto;html=1;exitX=0.365;exitY=0.997;exitDx=0;exitDy=0;entryX=0.365;entryY=0.021;entryDx=0;entryDy=0;entryPerimeter=0;exitPerimeter=0;" parent="1" source="5noMDowV80ESmVYEFfka-91" target="5noMDowV80ESmVYEFfka-50" edge="1">
          <mxGeometry relative="1" as="geometry" />
        </mxCell>
        <mxCell id="5noMDowV80ESmVYEFfka-91" value="CameraHandler" style="rounded=1;whiteSpace=wrap;html=1;" parent="1" vertex="1">
          <mxGeometry x="1625" y="820" width="120" height="60" as="geometry" />
        </mxCell>
        <mxCell id="5noMDowV80ESmVYEFfka-97" style="edgeStyle=orthogonalEdgeStyle;rounded=0;orthogonalLoop=1;jettySize=auto;html=1;entryX=0.623;entryY=0.991;entryDx=0;entryDy=0;entryPerimeter=0;" parent="1" target="5noMDowV80ESmVYEFfka-91" edge="1">
          <mxGeometry relative="1" as="geometry">
            <mxPoint x="1700" y="980" as="sourcePoint" />
            <Array as="points">
              <mxPoint x="1700" y="980" />
              <mxPoint x="1700" y="880" />
            </Array>
          </mxGeometry>
        </mxCell>
        <mxCell id="zGN-3tEp2X7R_o6R-bPP-3" style="edgeStyle=orthogonalEdgeStyle;rounded=0;orthogonalLoop=1;jettySize=auto;html=1;exitX=1;exitY=0.5;exitDx=0;exitDy=0;" parent="1" source="zGN-3tEp2X7R_o6R-bPP-1" target="zGN-3tEp2X7R_o6R-bPP-2" edge="1">
          <mxGeometry relative="1" as="geometry" />
        </mxCell>
        <mxCell id="zGN-3tEp2X7R_o6R-bPP-1" value="InputSystem" style="rounded=1;whiteSpace=wrap;html=1;" parent="1" vertex="1">
          <mxGeometry x="360" y="1640" width="120" height="60" as="geometry" />
        </mxCell>
        <mxCell id="zGN-3tEp2X7R_o6R-bPP-2" value="PlayerController" style="rounded=1;whiteSpace=wrap;html=1;" parent="1" vertex="1">
          <mxGeometry x="720" y="1640" width="120" height="60" as="geometry" />
        </mxCell>
        <mxCell id="zGN-3tEp2X7R_o6R-bPP-8" value="Character" style="swimlane;fontStyle=0;childLayout=stackLayout;horizontal=1;startSize=30;horizontalStack=0;resizeParent=1;resizeParentMax=0;resizeLast=0;collapsible=1;marginBottom=0;whiteSpace=wrap;html=1;" parent="1" vertex="1">
          <mxGeometry x="1050" y="1610" width="140" height="120" as="geometry">
            <mxRectangle x="1070" y="1600" width="60" height="30" as="alternateBounds" />
          </mxGeometry>
        </mxCell>
        <mxCell id="zGN-3tEp2X7R_o6R-bPP-9" value="Move()" style="text;strokeColor=none;fillColor=none;align=left;verticalAlign=middle;spacingLeft=4;spacingRight=4;overflow=hidden;points=[[0,0.5],[1,0.5]];portConstraint=eastwest;rotatable=0;whiteSpace=wrap;html=1;" parent="zGN-3tEp2X7R_o6R-bPP-8" vertex="1">
          <mxGeometry y="30" width="140" height="30" as="geometry" />
        </mxCell>
        <mxCell id="zGN-3tEp2X7R_o6R-bPP-10" value="Jump()" style="text;strokeColor=none;fillColor=none;align=left;verticalAlign=middle;spacingLeft=4;spacingRight=4;overflow=hidden;points=[[0,0.5],[1,0.5]];portConstraint=eastwest;rotatable=0;whiteSpace=wrap;html=1;" parent="zGN-3tEp2X7R_o6R-bPP-8" vertex="1">
          <mxGeometry y="60" width="140" height="30" as="geometry" />
        </mxCell>
        <mxCell id="zGN-3tEp2X7R_o6R-bPP-19" value="Attack()" style="text;strokeColor=none;fillColor=none;align=left;verticalAlign=middle;spacingLeft=4;spacingRight=4;overflow=hidden;points=[[0,0.5],[1,0.5]];portConstraint=eastwest;rotatable=0;whiteSpace=wrap;html=1;" parent="zGN-3tEp2X7R_o6R-bPP-8" vertex="1">
          <mxGeometry y="90" width="140" height="30" as="geometry" />
        </mxCell>
        <mxCell id="vdLLUuBFjmKbLHHhcxmm-12" value="Classname" style="swimlane;fontStyle=1;align=center;verticalAlign=top;childLayout=stackLayout;horizontal=1;startSize=26;horizontalStack=0;resizeParent=1;resizeParentMax=0;resizeLast=0;collapsible=1;marginBottom=0;whiteSpace=wrap;html=1;" vertex="1" parent="1">
          <mxGeometry x="690" y="1840" width="280" height="112" as="geometry" />
        </mxCell>
        <mxCell id="vdLLUuBFjmKbLHHhcxmm-13" value="+ field: type" style="text;strokeColor=none;fillColor=none;align=left;verticalAlign=top;spacingLeft=4;spacingRight=4;overflow=hidden;rotatable=0;points=[[0,0.5],[1,0.5]];portConstraint=eastwest;whiteSpace=wrap;html=1;" vertex="1" parent="vdLLUuBFjmKbLHHhcxmm-12">
          <mxGeometry y="26" width="280" height="26" as="geometry" />
        </mxCell>
        <mxCell id="vdLLUuBFjmKbLHHhcxmm-14" value="" style="line;strokeWidth=1;fillColor=none;align=left;verticalAlign=middle;spacingTop=-1;spacingLeft=3;spacingRight=3;rotatable=0;labelPosition=right;points=[];portConstraint=eastwest;strokeColor=inherit;" vertex="1" parent="vdLLUuBFjmKbLHHhcxmm-12">
          <mxGeometry y="52" width="280" height="8" as="geometry" />
        </mxCell>
        <mxCell id="vdLLUuBFjmKbLHHhcxmm-15" value="+ Move(Vector3 direction, MoveType type): void" style="text;strokeColor=none;fillColor=none;align=left;verticalAlign=top;spacingLeft=4;spacingRight=4;overflow=hidden;rotatable=0;points=[[0,0.5],[1,0.5]];portConstraint=eastwest;whiteSpace=wrap;html=1;" vertex="1" parent="vdLLUuBFjmKbLHHhcxmm-12">
          <mxGeometry y="60" width="280" height="26" as="geometry" />
        </mxCell>
        <mxCell id="vdLLUuBFjmKbLHHhcxmm-16" value="+ Move(Vector3 direction, MoveType type): void" style="text;strokeColor=none;fillColor=none;align=left;verticalAlign=top;spacingLeft=4;spacingRight=4;overflow=hidden;rotatable=0;points=[[0,0.5],[1,0.5]];portConstraint=eastwest;whiteSpace=wrap;html=1;" vertex="1" parent="vdLLUuBFjmKbLHHhcxmm-12">
          <mxGeometry y="86" width="280" height="26" as="geometry" />
        </mxCell>
      </root>
    </mxGraphModel>
  </diagram>
</mxfile>
